<svg xmlns="http://www.w3.org/2000/svg" xmlns:xlink="http://www.w3.org/1999/xlink" width="1366" zoomAndPan="magnify" viewBox="0 0 1024.5 576" height="768" preserveAspectRatio="xMidYMid meet" version="1.0"><defs><clipPath id="d0bed10a46"><path d="M 0 0.140625 L 1024 0.140625 L 1024 575.859375 L 0 575.859375 Z M 0 0.140625 " clip-rule="nonzero"/></clipPath></defs><g clip-path="url(#d0bed10a46)"><path fill="#ffffff" d="M 0 0.140625 L 1024.5 0.140625 L 1024.5 1159.640625 L 0 1159.640625 Z M 0 0.140625 " fill-opacity="1" fill-rule="nonzero"/><path fill="#ffffff" d="M 0 0.140625 L 1024.5 0.140625 L 1024.5 576.140625 L 0 576.140625 Z M 0 0.140625 " fill-opacity="1" fill-rule="nonzero"/><path fill="#ffffff" d="M 0 0.140625 L 1024.5 0.140625 L 1024.5 576.140625 L 0 576.140625 Z M 0 0.140625 " fill-opacity="1" fill-rule="nonzero"/></g><path fill="#ffbb02" d="M 515.175781 384.785156 C 500.476562 377.175781 485.722656 369.511719 472.121094 360.042969 C 471.023438 359.277344 469.761719 358.675781 468.558594 358.019531 C 465.871094 356.539062 465.703125 355.9375 466.636719 352.925781 C 467.789062 349.261719 468.941406 345.59375 469.761719 341.871094 C 472.890625 327.859375 457.039062 337.984375 455.339844 338.640625 C 454.132812 339.132812 452.980469 338.53125 451.5 336.945312 C 448.648438 333.824219 445.796875 330.648438 443.21875 327.3125 C 421.941406 299.832031 395.78125 247.726562 423.035156 216.085938 C 424.351562 214.554688 426 214.007812 428.027344 214.390625 C 442.726562 217.347656 455.230469 213.625 445.6875 197.695312 C 445.523438 195.78125 446.785156 194.742188 448.484375 194.03125 C 457.808594 190.199219 467.296875 188.28125 477.277344 190.910156 C 479.085938 191.402344 480.898438 191.730469 482.707031 192.167969 C 493.070312 194.6875 501.957031 199.558594 508.484375 208.261719 C 508.976562 208.917969 509.46875 209.628906 510.019531 210.339844 C 510.675781 209.738281 511.003906 209.574219 511.171875 209.246094 C 516.820312 198.957031 525.484375 191.785156 535.410156 186.039062 C 540.785156 182.917969 546.324219 180.070312 552.027344 177.5 C 559.707031 174.050781 567.660156 173.011719 575.832031 174.324219 C 578.246094 174.707031 578.738281 175.691406 579.066406 176.84375 C 580.21875 181.003906 576.875 186.695312 585.976562 189.101562 C 592.777344 190.910156 594.863281 187.351562 598.753906 183.683594 C 599.796875 182.699219 600.839844 182.644531 601.992188 183.738281 C 629.03125 210.121094 627 257.632812 609.667969 288.886719 C 606.488281 294.578125 602.046875 299.613281 598.042969 304.871094 C 597.273438 305.855469 595.792969 306.785156 594.585938 306.839844 C 586.636719 307.222656 580.21875 322.386719 590.035156 326.433594 C 590.640625 326.652344 590.472656 326.597656 590.96875 326.984375 C 593.929688 329.117188 585.867188 340.285156 583.949219 343.839844 C 581.699219 347.890625 579.175781 351.832031 576.488281 355.664062 C 568.976562 366.445312 562.613281 377.777344 557.789062 389.984375 C 556.746094 392.609375 555.375 395.183594 553.949219 397.648438 C 550.765625 403.121094 520.601562 387.574219 515.175781 384.785156 Z M 515.175781 384.785156 " fill-opacity="1" fill-rule="nonzero"/><path fill="#d67a03" d="M 547.367188 290.308594 C 559.597656 296.277344 561.515625 305.910156 562.285156 318.171875 C 562.503906 321.835938 560.96875 324.464844 557.128906 325.832031 L 542.707031 331.964844 C 545.449219 336.78125 551.808594 340.941406 555.703125 337.164062 C 557.953125 334.972656 559.050781 326.765625 565.574219 330.484375 C 577.039062 336.945312 563.164062 355.117188 549.230469 352.707031 C 542.375 351.503906 536.945312 348.4375 532.558594 343.019531 C 524.773438 333.332031 522.796875 322.332031 524.441406 310.34375 C 524.550781 309.632812 524.660156 308.863281 524.773438 308.152344 C 526.253906 296.714844 535.246094 284.398438 547.367188 290.308594 Z M 578.792969 312.203125 C 578.902344 315.324219 575.335938 319.429688 572.210938 319.757812 C 569.90625 319.976562 568.207031 318.828125 568.207031 316.472656 C 568.207031 307.167969 578.574219 307.113281 578.792969 312.203125 Z M 535.464844 355.828125 C 537.386719 357.632812 537 360.480469 534.589844 363.054688 C 532.285156 365.460938 529.050781 366.117188 527.457031 364.09375 C 521.863281 356.921875 531.351562 351.996094 535.464844 355.828125 Z M 582.742188 293.429688 C 581.097656 296.386719 578.464844 298.300781 575.171875 299.121094 C 566.835938 301.203125 562.121094 285.054688 573.800781 283.085938 C 579.671875 282.042969 586.691406 286.421875 582.742188 293.429688 Z M 459.507812 316.253906 C 455.339844 317.074219 452.160156 314.996094 451.828125 310.78125 C 451.5 306.457031 452.214844 302.023438 454.957031 298.792969 C 458.300781 294.796875 463.128906 293.867188 466.363281 298.957031 C 470.640625 305.800781 467.789062 314.667969 459.507812 316.253906 Z M 528.5 212.53125 C 528.609375 201.964844 536.289062 196.710938 545.558594 197.476562 C 551.316406 197.96875 555.15625 203.335938 554.441406 209.136719 C 553.675781 215.429688 542.707031 224.132812 534.863281 221.179688 C 530.804688 219.644531 528.554688 216.800781 528.5 212.53125 Z M 581.480469 246.355469 C 580.65625 249.695312 580.4375 252.871094 581.152344 256.046875 C 581.808594 258.945312 583.949219 260.203125 586.800781 259.328125 C 588.882812 258.671875 590.859375 257.523438 592.832031 256.484375 C 595.191406 255.167969 595.574219 255.113281 597.273438 257.085938 C 598.808594 258.890625 600.347656 260.699219 601.550781 262.722656 C 602.980469 265.023438 602.539062 266.0625 600.070312 267.375 C 597.382812 268.851562 594.808594 270.933594 591.898438 271.644531 C 578.464844 275.039062 568.535156 268.195312 566.945312 254.457031 C 563.328125 222.21875 593.710938 191.074219 607.367188 212.257812 C 610.546875 217.183594 612.519531 222.492188 612.410156 228.402344 C 612.246094 235.300781 610.875 241.976562 608.40625 248.4375 C 606.925781 252.324219 605.996094 252.652344 601.882812 251.613281 C 597 250.351562 584.332031 247.234375 581.480469 246.355469 Z M 601.550781 238.367188 C 603.144531 230.8125 603.144531 220.246094 595.847656 220.578125 C 590.089844 220.796875 588.007812 224.957031 585.976562 229.773438 C 585.15625 231.6875 584.550781 233.492188 584.277344 234.808594 Z M 447.660156 289.050781 C 434.167969 289.160156 423.695312 280.128906 421.445312 267.429688 C 418.320312 249.53125 428.519531 228.566406 449.085938 222.273438 C 451.117188 221.671875 453.199219 221.234375 455.285156 221.015625 C 459.234375 220.6875 461.261719 222.328125 462.03125 226.214844 C 462.796875 230.101562 463.621094 233.988281 464.167969 237.925781 C 464.664062 241.539062 464.003906 242.03125 460.386719 241.867188 C 458.90625 241.8125 457.367188 241.757812 455.941406 242.03125 C 447.714844 243.402344 443.328125 249.367188 444.152344 257.742188 C 444.371094 260.203125 445.6875 261.847656 447.9375 262.832031 C 451.226562 264.253906 454.679688 264.527344 458.191406 263.925781 C 460.605469 263.542969 463.019531 262.777344 465.429688 262.066406 C 468.503906 261.191406 469.488281 261.738281 469.929688 265.023438 C 470.476562 269.070312 470.914062 273.175781 471.519531 277.226562 C 471.902344 279.964844 470.203125 281.496094 468.28125 282.59375 C 461.648438 286.367188 454.734375 289.160156 447.660156 289.050781 Z M 488.519531 345.59375 C 490.382812 344.441406 493.457031 343.839844 494.773438 343.621094 C 503.164062 342.472656 508.976562 332.074219 500.367188 328.679688 C 498.226562 327.695312 495.925781 326.984375 493.675781 326.324219 C 490.933594 325.503906 488.082031 324.957031 485.394531 324.027344 C 460.988281 315.761719 472.121094 274.820312 498.777344 285.328125 C 503.875 287.355469 508.59375 290.144531 513.527344 292.609375 C 514.296875 292.992188 514.789062 293.539062 515.0625 294.140625 C 515.722656 295.839844 513.417969 307.605469 510.566406 307.332031 C 506.070312 306.894531 502.890625 301.421875 494.71875 303.390625 C 487.917969 304.980469 492.140625 314.503906 498.390625 315.816406 C 501.296875 316.417969 504.316406 316.582031 507.277344 317.019531 C 517.421875 318.445312 523.402344 326.488281 521.699219 336.671875 C 520.328125 344.882812 516.105469 351.613281 509.25 356.320312 C 506.070312 358.511719 498.777344 361.355469 495.59375 357.910156 C 493.675781 355.9375 484.296875 348.164062 488.519531 345.59375 Z M 487.53125 233.382812 C 488.683594 232.726562 489.507812 232.234375 490.328125 231.742188 C 494.992188 228.785156 500.148438 227.472656 505.578125 227.308594 C 510.347656 227.144531 513.96875 229.277344 516.488281 233.273438 C 520 238.914062 521.097656 245.097656 520.054688 251.558594 C 519.230469 256.8125 517.972656 262.011719 516.875 267.265625 C 516.160156 270.660156 515.339844 274.054688 514.460938 277.390625 C 513.746094 280.183594 512.375 280.949219 509.523438 280.457031 C 508.59375 280.292969 507.605469 280.347656 506.671875 280.292969 C 505.578125 280.238281 504.425781 280.292969 503.328125 280.074219 C 500.96875 279.582031 500.09375 278.433594 500.53125 276.078125 C 500.96875 273.78125 501.683594 271.480469 502.285156 269.238281 C 503.382812 265.132812 504.425781 261.027344 504.09375 256.757812 C 503.984375 255.277344 503.765625 253.746094 503.273438 252.378906 C 501.574219 247.835938 496.472656 247.125 493.566406 250.953125 C 492.851562 251.886719 492.25 253.144531 492.085938 254.292969 C 491.371094 259.710938 490.660156 265.132812 490.382812 270.550781 C 490.273438 272.792969 490.824219 280.894531 489.125 281.113281 C 485.175781 281.660156 481.226562 282.042969 477.277344 282.261719 C 475.851562 282.371094 475.027344 281.222656 474.753906 279.910156 C 474.261719 277.882812 473.820312 275.804688 473.546875 273.726562 C 472.066406 262.996094 470.585938 252.324219 469.214844 241.59375 C 468.28125 234.097656 467.515625 226.542969 466.800781 218.988281 C 466.472656 215.703125 466.746094 215.429688 469.929688 214.554688 C 471.847656 214.007812 473.820312 213.789062 475.796875 213.460938 C 477.769531 213.132812 479.746094 212.914062 481.664062 212.476562 C 484.351562 211.875 485.066406 212.203125 485.394531 214.882812 C 485.886719 219.207031 486.328125 223.53125 486.820312 227.855469 C 486.984375 229.664062 487.257812 231.359375 487.53125 233.382812 Z M 560.96875 273.394531 C 564.3125 265.898438 564.421875 265.953125 558.171875 260.535156 C 555.867188 258.507812 555.320312 258.5625 553.289062 260.808594 C 551.207031 263.105469 549.121094 265.460938 546.820312 267.539062 C 543.636719 270.332031 541.445312 269.839844 539.359375 266.0625 C 538.867188 265.132812 538.539062 264.089844 538.207031 263.378906 C 546.050781 260.808594 553.566406 258.34375 561.078125 255.824219 C 563.710938 254.949219 564.203125 254.402344 563.710938 251.777344 C 563.105469 248.492188 562.503906 245.097656 561.1875 242.03125 C 558.0625 234.425781 552.742188 228.621094 545.117188 225.121094 C 540.457031 222.984375 536.234375 223.75 532.339844 227.253906 C 526.691406 232.398438 524.113281 238.96875 523.234375 246.355469 C 522.578125 251.886719 523.070312 257.25 524.332031 262.503906 C 530.257812 286.585938 553.070312 288.941406 560.96875 273.394531 Z M 552.25 246.628906 C 549.78125 247.617188 538.8125 250.460938 536.125 251.5 C 533.4375 228.402344 547.75 233.765625 552.25 246.628906 Z M 553.621094 315.050781 C 554.167969 307.714844 546.984375 298.628906 541.828125 297.753906 C 535.960938 296.769531 535.742188 320.03125 538.152344 322.273438 Z M 553.621094 315.050781 " fill-opacity="1" fill-rule="nonzero"/></svg>